<svg width="15" height="12" viewBox="0 0 15 12" fill="none" xmlns="http://www.w3.org/2000/svg">
<g id="IMAGE" clip-path="url(#clip0_2_301)">
<path id="Vector" d="M2.52115 10.5804C3.22245 10.2794 3.83461 9.82201 4.35762 9.20807C4.88063 8.59414 5.19562 7.96816 5.3026 7.33015C5.36203 6.99309 5.39175 6.70418 5.39175 6.46342C5.39175 6.18654 5.36203 5.95782 5.3026 5.77725C4.74393 6.36711 4.03668 6.66204 3.18085 6.66204C2.32502 6.66204 1.62966 6.40925 1.09476 5.90365C0.559866 5.39806 0.292419 4.69986 0.292419 3.80905C0.29242 2.96639 0.577696 2.28023 1.14825 1.75056C1.70692 1.22089 2.42011 0.956055 3.28783 0.956055C4.47648 0.956055 5.3442 1.38942 5.89098 2.25615C6.1406 2.62933 6.33673 3.08677 6.47937 3.62848C6.62201 4.18222 6.69332 4.74801 6.69332 5.32583C6.69332 6.58982 6.37239 7.74546 5.73051 8.79276C5.08864 9.84007 4.13177 10.6586 2.85991 11.2485L2.52115 10.5804ZM10.0454 10.5804C10.7467 10.2794 11.3588 9.82201 11.8818 9.20807C12.4048 8.59414 12.7198 7.96816 12.8268 7.33015C12.8862 6.99309 12.916 6.70418 12.916 6.46342C12.916 6.18654 12.8862 5.95782 12.8268 5.77725C12.2681 6.36711 11.5609 6.66204 10.7051 6.66204C9.8492 6.66204 9.15384 6.40925 8.61895 5.90365C8.08405 5.39806 7.8166 4.69986 7.8166 3.80905C7.8166 2.96639 8.10188 2.28023 8.67243 1.75056C9.2311 1.22089 9.9443 0.956055 10.812 0.956055C12.0007 0.956055 12.8684 1.38942 13.4152 2.25615C13.6648 2.62933 13.8609 3.08677 14.0036 3.62848C14.1462 4.18222 14.2175 4.74801 14.2175 5.32583C14.2175 6.58982 13.8966 7.74546 13.2547 8.79276C12.6128 9.84007 11.656 10.6586 10.3841 11.2485L10.0454 10.5804Z" fill="#292E36"/>
</g>
<defs>
<clipPath id="clip0_2_301">
<rect width="15" height="12" fill="white"/>
</clipPath>
</defs>
</svg>
