<!-- Generated by IcoMoon.io -->
<svg version="1.1" xmlns="http://www.w3.org/2000/svg" width="1024" height="1024" viewBox="0 0 1024 1024">
<g id="icomoon-ignore">
</g>
<path d="M713.993 102.215c55.65 0.16 108.971 21.519 148.318 59.411 39.351 37.892 61.53 89.239 61.696 142.826v404.429c-0.166 53.589-22.345 104.934-61.696 142.827-39.347 37.892-92.668 59.251-148.318 59.409h-419.985c-55.648-0.158-108.97-21.517-148.32-59.409s-61.529-89.237-61.696-142.827v-404.429c0.166-53.588 22.346-104.934 61.696-142.826s92.671-59.251 148.32-59.411h419.985zM713.993 21.333h-419.985c-161.708 0-294.007 127.4-294.007 283.119v404.429c0 155.721 132.3 283.119 294.007 283.119h419.985c161.707 0 294.007-127.398 294.007-283.119v-404.429c0-155.718-132.301-283.119-294.007-283.119z"></path>
<path d="M776.994 304.458c-12.463 0-24.644-3.558-35.004-10.224s-18.432-16.141-23.202-27.226c-4.77-11.086-6.016-23.284-3.584-35.052 2.428-11.768 8.431-22.578 17.242-31.062s20.036-14.262 32.256-16.603c12.22-2.341 24.887-1.139 36.399 3.453s21.35 12.367 28.275 22.344c6.921 9.976 10.615 21.706 10.615 33.705 0.017 7.971-1.6 15.868-4.757 23.236-3.162 7.368-7.799 14.063-13.653 19.7s-12.809 10.105-20.459 13.148c-7.65 3.043-15.851 4.6-24.128 4.583zM504 344.888c33.229 0 65.711 9.489 93.342 27.266 27.627 17.777 49.161 43.045 61.875 72.607 12.719 29.565 16.043 62.094 9.562 93.475-6.481 31.386-22.481 60.211-45.978 82.837s-53.436 38.033-86.025 44.275c-32.589 6.242-66.372 3.042-97.071-9.203s-56.938-32.981-75.399-59.588c-18.461-26.607-28.314-57.886-28.314-89.882 0.047-42.897 17.763-84.020 49.261-114.351s74.202-47.39 118.746-47.436zM504 264.007c-49.839 0-98.563 14.232-140.003 40.896s-73.741 64.564-92.814 108.905c-19.073 44.342-24.064 93.135-14.34 140.205 9.723 47.074 33.724 90.313 68.967 124.25s80.145 57.050 129.026 66.415c48.883 9.361 99.554 4.557 145.6-13.811s85.406-49.468 113.097-89.374c27.691-39.906 42.466-86.827 42.466-134.818 0-64.361-26.547-126.084-73.809-171.593-47.258-45.509-111.356-71.075-178.189-71.075z"></path>
</svg>
