<!-- Generated by IcoMoon.io -->
<svg version="1.1" xmlns="http://www.w3.org/2000/svg" width="1024" height="1024" viewBox="0 0 1024 1024">
<g id="icomoon-ignore">
</g>
<path d="M504.431 20.48c-271.495 0-491.631 220.038-491.631 491.409 0 201.171 121.151 374.043 294.319 450.167-1.317-34.222-0.22-75.465 8.56-112.759 9.438-39.928 63.209-267.862 63.209-267.862s-15.802-31.371-15.802-77.66c0-72.835 42.14-127.242 94.814-127.242 44.773 0 66.281 33.565 66.281 73.712 0 44.974-28.75 112.103-43.454 174.408-12.292 52.212 26.116 94.552 77.693 94.552 93.061 0 155.832-119.562 155.832-261.28 0-107.717-72.651-188.229-204.554-188.229-149.026 0-242.085 111.225-242.085 235.395 0 42.779 12.73 73.052 32.483 96.305 8.999 10.752 10.315 15.139 7.023 27.423-2.414 8.995-7.682 30.716-10.096 39.49-3.292 12.505-13.388 16.892-24.582 12.284-68.696-28.078-100.74-103.105-100.74-187.785 0-139.527 117.859-306.914 351.382-306.914 187.654 0 311.222 135.796 311.222 281.466 0 192.831-107.327 336.744-265.351 336.744-53.113 0-102.932-28.738-120.054-61.207 0 0-28.533 113.201-34.677 135.139-10.315 37.954-30.727 75.686-49.382 105.304 45.253 13.341 92.185 20.14 139.367 20.181 271.495 0 491.631-220.037 491.631-491.409 0-271.374-219.918-491.631-491.409-491.631z"></path>
</svg>
