<!-- Generated by IcoMoon.io -->
<svg version="1.1" xmlns="http://www.w3.org/2000/svg" width="1024" height="1024" viewBox="0 0 1024 1024">
<g id="icomoon-ignore">
</g>
<path fill="none" stroke-linejoin="round" stroke-linecap="round" stroke-miterlimit="4" stroke-width="73.1429" stroke="#000" d="M169.629 204.941c-74.45 83.284-116.092 190.543-117.353 302.006-2.945 254.897 205.264 463.947 459.739 464.787 254.477 0.42 459.74-205.684 459.74-459.74 0-250.27-200.217-454.271-449.225-459.739-1.262 0-2.945 0-4.207 0.841-1.26 0.421-2.522 1.262-3.365 2.103-0.84 0.841-1.682 2.103-2.522 3.365-0.422 1.262-0.842 2.524-0.842 4.206v200.216"></path>
<path fill="#000" d="M458.175 565.837l-189.279-270.461c-2.945-3.785-3.787-8.411-3.367-13.038 0.422-4.627 2.104-8.834 5.469-12.198s7.571-5.047 12.198-5.469c4.207-0.42 8.834 0.842 12.618 3.367l270.459 189.279c16.405 11.778 27.761 29.863 31.128 50.055 3.365 20.19-1.262 40.799-13.040 57.624s-29.443 28.183-49.633 31.968c-20.19 3.785-40.801-0.842-57.626-12.198-7.149-5.047-13.88-11.356-18.927-18.927z"></path>
</svg>
