<!-- Generated by IcoMoon.io -->
<svg version="1.1" xmlns="http://www.w3.org/2000/svg" width="1024" height="1024" viewBox="0 0 1024 1024">
<g id="icomoon-ignore">
</g>
<path d="M1003.079 192.962c-37.4 16.249-76.965 26.954-117.453 31.777 42.551-24.915 74.547-64.497 89.994-111.323-40.227 23.523-84.165 40.028-129.934 48.808-19.271-20.197-42.449-36.265-68.124-47.226s-53.311-16.587-81.227-16.535c-113.026 0-204.493 90.138-204.493 201.254-0.083 15.456 1.69 30.865 5.274 45.9-81.046-3.799-160.41-24.475-233.009-60.703s-136.838-87.212-188.605-149.689c-18.161 30.616-27.766 65.549-27.81 101.146 0 69.784 36.408 131.469 91.385 167.608-32.572-0.773-64.476-9.394-93.005-25.131v2.492c0 97.615 70.615 178.825 164.077 197.308-17.575 4.687-35.686 7.058-53.875 7.062-12.906 0.024-25.784-1.229-38.444-3.738 25.982 79.959 101.603 138.114 191.181 139.776-72.788 56.096-162.154 86.414-254.049 86.193-16.312-0.024-32.608-0.996-48.808-2.911 93.486 59.695 202.156 91.274 313.075 90.971 376.669 0 582.454-306.763 582.454-572.815 0-8.723-0.228-17.446-0.646-25.962 39.94-28.411 74.496-63.718 102.042-104.262z"></path>
</svg>
